<svg width="221" height="56" viewBox="0 0 221 56" fill="none" xmlns="http://www.w3.org/2000/svg">
<path d="M81.464 39.336C80.0267 39.336 78.7293 39.056 77.572 38.496C76.4147 37.9173 75.4907 37.0493 74.8 35.892C74.128 34.7347 73.792 33.2693 73.792 31.496V19.4H77.376V31.524C77.376 33.0547 77.74 34.1933 78.468 34.94C79.2147 35.6867 80.2413 36.06 81.548 36.06C82.836 36.06 83.8533 35.6867 84.6 34.94C85.3467 34.1933 85.72 33.0547 85.72 31.524V19.4H89.304V31.496C89.304 33.2693 88.9493 34.7347 88.24 35.892C87.5307 37.0493 86.5787 37.9173 85.384 38.496C84.208 39.056 82.9013 39.336 81.464 39.336ZM100.803 39V19.4H108.055C109.623 19.4 110.92 19.6613 111.947 20.184C112.973 20.7067 113.739 21.4253 114.243 22.34C114.747 23.2547 114.999 24.2813 114.999 25.42C114.999 26.5027 114.756 27.5013 114.271 28.416C113.785 29.312 113.029 30.04 112.003 30.6C110.976 31.1413 109.66 31.412 108.055 31.412H104.387V39H100.803ZM104.387 28.5H107.831C109.081 28.5 109.977 28.2293 110.519 27.688C111.079 27.128 111.359 26.372 111.359 25.42C111.359 24.4493 111.079 23.6933 110.519 23.152C109.977 22.592 109.081 22.312 107.831 22.312H104.387V28.5ZM125.65 39V19.4H133.518C135.553 19.4 137.102 19.876 138.166 20.828C139.249 21.7613 139.79 22.9653 139.79 24.44C139.79 25.672 139.454 26.6613 138.782 27.408C138.129 28.136 137.326 28.6307 136.374 28.892C137.494 29.116 138.418 29.676 139.146 30.572C139.874 31.4493 140.238 32.476 140.238 33.652C140.238 35.2013 139.678 36.48 138.558 37.488C137.438 38.496 135.852 39 133.798 39H125.65ZM129.234 27.632H132.986C133.994 27.632 134.769 27.3987 135.31 26.932C135.852 26.4653 136.122 25.8027 136.122 24.944C136.122 24.1227 135.852 23.4787 135.31 23.012C134.788 22.5267 133.994 22.284 132.93 22.284H129.234V27.632ZM129.234 36.088H133.238C134.302 36.088 135.124 35.8453 135.702 35.36C136.3 34.856 136.598 34.156 136.598 33.26C136.598 32.3453 136.29 31.6267 135.674 31.104C135.058 30.5813 134.228 30.32 133.182 30.32H129.234V36.088ZM160.338 39.336C158.378 39.336 156.661 38.9067 155.186 38.048C153.73 37.1893 152.582 36.004 151.742 34.492C150.921 32.9613 150.51 31.1973 150.51 29.2C150.51 27.2027 150.921 25.448 151.742 23.936C152.582 22.4053 153.73 21.2107 155.186 20.352C156.661 19.4933 158.378 19.064 160.338 19.064C162.28 19.064 163.988 19.4933 165.462 20.352C166.937 21.2107 168.085 22.4053 168.906 23.936C169.728 25.448 170.138 27.2027 170.138 29.2C170.138 31.1973 169.728 32.9613 168.906 34.492C168.085 36.004 166.937 37.1893 165.462 38.048C163.988 38.9067 162.28 39.336 160.338 39.336ZM160.338 36.116C162.205 36.116 163.689 35.5 164.79 34.268C165.91 33.036 166.47 31.3467 166.47 29.2C166.47 27.0533 165.91 25.364 164.79 24.132C163.689 22.9 162.205 22.284 160.338 22.284C158.472 22.284 156.978 22.9 155.858 24.132C154.738 25.364 154.178 27.0533 154.178 29.2C154.178 31.3467 154.738 33.036 155.858 34.268C156.978 35.5 158.472 36.116 160.338 36.116ZM178.769 39L184.901 29.088L178.685 19.4H182.801L187.197 26.232L191.229 19.4H195.261L189.129 29.256L195.401 39H191.285L186.833 32.084L182.801 39H178.769Z" fill="black"/>
<rect width="56" height="56" rx="28" fill="black"/>
<path d="M20.2806 42.4243C18.2736 42.4243 16.494 42.0638 14.9419 41.343C13.4166 40.6222 12.2124 39.4875 11.3293 37.939C10.4729 36.3639 10.0448 34.2948 10.0448 31.7318V27.4068C10.0448 25.9117 10.0448 24.4033 10.0448 22.8816C10.0448 21.3598 10.0314 19.8247 10.0046 18.2762C10.0046 17.235 9.50957 16.5809 8.51944 16.3139L7.63635 16.1137V15.2727H18.4743V16.1137L17.3503 16.354C16.3334 16.5943 15.825 17.2617 15.825 18.3563C15.7982 19.8514 15.7849 21.3598 15.7849 22.8816C15.7849 24.3766 15.7849 25.8851 15.7849 27.4068V32.4927C15.7849 35.0824 16.3067 36.9512 17.3503 38.0992C18.4207 39.2472 19.9327 39.8212 21.8862 39.8212C23.9467 39.8212 25.5523 39.2072 26.703 37.9791C27.8805 36.7243 28.4692 34.8688 28.4692 32.4126V18.4765C28.4692 17.9425 28.3622 17.4753 28.1481 17.0748C27.934 16.6744 27.5594 16.4207 27.0242 16.3139L26.0608 16.1137V15.2727H32.2424V16.1137L31.1185 16.354C30.61 16.4608 30.2621 16.7011 30.0748 17.0748C29.8875 17.4486 29.7938 17.9025 29.7938 18.4364V32.1724C29.7938 35.4829 28.9241 38.0191 27.1847 39.7812C25.4453 41.5432 23.1439 42.4243 20.2806 42.4243Z" fill="white"/>
<path d="M19.6034 42.4242L21.3004 41.5616L25.4545 39.8788C26.0247 39.6597 26.5372 39.3863 26.7273 39.0303C26.9445 38.6743 27.1515 38.36 27.1515 37.7576C28 36.0606 28.5498 35.9342 28.5498 34.3733C28.5498 32.785 28.5498 31.1967 28.5498 29.6084V28.1297C28.5498 26.5414 28.5362 24.9668 28.5091 23.4059C28.5091 21.8176 28.5091 20.2293 28.5091 18.641C28.5091 17.9838 28.4141 17.4909 28.224 17.1623C28.0339 16.8063 27.6402 16.5324 27.0429 16.3407L26.3913 16.1353V15.2727H37.8764C41.1345 15.2727 43.4967 15.8889 44.9629 17.1212C46.4291 18.3261 47.1622 19.8596 47.1622 21.7217C47.1622 23.1457 46.6463 24.4328 45.6145 25.5829C44.5828 26.7057 42.7772 27.5135 40.1978 28.0064C43.1845 28.335 45.343 29.1155 46.6735 30.3478C48.0039 31.5801 48.6691 33.0862 48.6691 34.8662C48.6691 35.7425 48.479 36.6325 48.0989 37.5362C47.7188 38.4125 47.0672 39.2203 46.144 39.9597C45.248 40.699 44.0262 41.3015 42.4785 41.767C40.9309 42.2052 38.976 42.4242 36.6138 42.4242H19.6034ZM34.3331 27.7189H36.2473C38.0936 27.7189 39.424 27.3081 40.2385 26.4866C41.0802 25.6377 41.5011 24.2 41.5011 22.1736C41.5011 20.065 41.121 18.5862 40.3607 17.7373C39.6005 16.8884 38.4058 16.464 36.7767 16.464H34.3331V27.7189ZM34.3331 41.233H36.5731C38.6095 41.233 40.1299 40.7264 41.1345 39.7132C42.1392 38.7 42.6415 37.0706 42.6415 34.8251C42.6415 32.6618 42.1527 31.1419 41.1753 30.2656C40.225 29.3619 38.6502 28.9101 36.4509 28.9101H34.3331V41.233Z" fill="white"/>
<path d="M36.0606 28.9077C35.2121 28.9077 35.6363 30.1211 35.6363 30.1211H40.303L46.2424 29.2726L44.1212 27.9998C44.1212 27.9998 40.6769 27.8872 40.2266 27.9999C40.2266 27.9999 36.9091 28.9077 36.0606 28.9077Z" fill="black"/>
</svg>
