<svg width="575" height="291" viewBox="0 0 575 291" fill="none" xmlns="http://www.w3.org/2000/svg">
<mask id="mask0" mask-type="alpha" maskUnits="userSpaceOnUse" x="0" y="0" width="575" height="291">
<rect width="575" height="291" fill="#C4C4C4"/>
</mask>
<g mask="url(#mask0)">
<path d="M539.807 221.699C533.472 244.85 524.578 266.807 510.636 286.094C495.974 306.369 485.578 328.636 474.294 350.644C453.497 390.686 426.21 425.543 385.399 448.372C351.333 467.629 313.872 475.568 273.043 469.501C243.207 465.142 214.894 455.24 189.006 438.709C186.254 437.009 183.502 435.308 180.259 434.961C151.833 431.313 127.086 419.158 104.455 401.631C76.7541 380.231 53.9541 355.021 37.0696 325.098C24.1681 302.175 15.435 277.773 13.0888 252.539C10.3847 223.608 12.9945 195.628 25.4237 169.612C28.3711 163.436 29.5334 156.141 33.0827 150.739C37.4195 144.069 40.3462 136.69 44.6487 130.16C52.1462 119.023 56.8234 106.465 62.8764 94.7578C70.6421 79.9569 80.7156 66.7272 91.8691 54.2614C107.356 37.0715 125.161 22.0543 146.055 11.2311C164.579 1.66302 183.626 -7.45332 204.919 -12.1724C220.2 -15.6505 235.13 -20.2788 250.648 -22.7895C301.017 -31.006 351.242 -28.3367 401.247 -10.6123C439.889 3.05006 473.041 24.8421 499.404 56.1811C536.206 99.8449 550.36 148.581 543.108 201.854C542.266 208.494 540.945 215.145 539.807 221.699ZM415.046 418.096C417.116 418.699 418.268 417.239 419.317 416.198C429.852 406.246 439.716 395.799 447.602 383.728C450.216 379.55 455.615 376.933 455.808 371.002C452.654 371.579 450.841 373.146 450.04 375.757C448.609 380.279 445.28 383.5 442.212 386.947C433.157 397.33 424.215 407.896 415.159 418.279C403.968 426.392 392.776 434.506 381.551 442.759C388.67 439.595 395.528 436.206 401.512 431.215C406.334 427.082 412.542 424.401 415.046 418.096ZM237.483 418.864C251.457 420.693 262.807 419.661 273.513 415.448C284.402 411.138 292.213 403.237 300.58 395.647C311.913 385.03 320.972 372.702 328.734 359.846C335.64 348.537 341.535 336.184 346.246 323.487C357.613 293.419 365.804 262.725 363.836 229.518C361.768 194.784 352.378 162.107 331.191 132.278C296.662 83.8875 244.49 62.0883 188.467 68.8057C184.869 69.2537 181.351 70.0241 178.672 72.5362C161.365 88.7466 147.265 107.389 136.324 128C121.388 155.829 112.787 186.254 109.51 218.232C104.889 264.038 111.834 308.576 136.175 350.703C148.691 372.615 163.247 393.326 187.55 405.352C194.748 408.948 202.525 414.06 210.181 410.005C218.452 405.381 226.6 399.973 233.145 393.348C260.58 364.972 273.377 330.382 270.772 290.103C269.878 274.423 262.982 260.587 251.518 248.562C249.382 246.292 244.299 243.762 246.968 240.648C249.351 238.05 254.025 240.311 257.334 242.324C258.562 243.131 259.755 244.078 260.766 245.121C273.685 258.318 283.14 273.35 286.091 290.977C292.252 328.401 282.303 361.726 262.923 392.151C256.509 402.107 248.003 410.255 237.483 418.864ZM335.827 397.991C337.591 397.906 338.547 397.886 339.242 397.639C361.635 388.451 382.144 376.617 401.972 363.687C417.252 353.772 430.92 342.039 443.951 329.672C452.856 321.19 461.533 312.344 465.856 300.581C476.583 271.824 483.282 242.042 484.179 210.717C485.509 166.047 478.254 122.766 454.047 82.0258C441.733 61.2205 425.179 44.1186 404.577 31.2254C371.036 10.3679 335.037 9.15203 298.855 14.4696C275.368 17.8003 253.58 25.8179 232.665 35.4376C223.176 39.856 213.811 45.0591 205.227 52.885C216.628 54.8622 226.791 55.4306 236.941 57.3422C271.338 63.7792 301.405 79.4323 327.19 102.819C362.317 134.617 381.53 173.751 386.859 218.417C393.498 275.141 379.443 326.43 351.565 373.988C346.918 381.914 341.385 389.582 335.827 397.991ZM102.133 75.6666C105.352 76.755 107.402 76.1551 109.111 75.0069C118.057 68.933 128.306 65.9337 138.851 63.0207C144.966 61.3608 151.081 59.7009 157.162 58.1807C167.126 55.6969 173.956 48.5571 181.956 43.1056C205.659 26.6648 231.485 13.8367 260.193 6.04052C294.504 -3.26561 329.042 -5.76923 365.324 3.3131C384.756 8.08114 402.534 15.0613 419.532 25.8557C447.092 43.3225 466.992 66.7893 482.14 94.1094C504.73 134.977 510.881 178.236 509.21 222.358C509.011 225.742 509.29 229.117 509.42 232.448C513.713 225.317 515.126 217.646 517.131 210.147C525.495 178.754 523.946 146.418 513.951 114.912C504.227 84.233 485.812 57.3074 459.249 35.7902C435.335 16.3924 408.611 2.61231 378.837 -4.57258C346.07 -12.4803 313.348 -13.4889 280.743 -9.82289C225.449 -3.49165 174.815 12.8808 131.972 45.8956C120.938 54.6541 110.837 64.1335 102.133 75.6666ZM146.27 390.172C143.357 383.335 137.572 378.504 133.28 372.762C108.753 339.114 95.4657 302.307 90.4812 262.681C85.5069 223.657 91.7519 186.707 103.754 150.837C111.169 128.449 122.77 107.731 136.791 88.7665C137.943 87.3061 140.678 85.8579 138.394 83.5454C136.633 81.6846 134.979 83.8968 133.372 84.626C116.719 91.7458 102.326 101.92 89.659 114.094C78.0412 125.227 67.5721 136.844 64.4462 154.046C50.3467 230.62 68.3671 300.992 121.08 365.013C128.668 374.111 136.836 382.78 146.27 390.172ZM37.7546 206.44C27.6406 249.447 32.9966 291.427 58.5141 331.351C81.1596 366.845 108.902 397.09 150.123 413.151C82.9857 357.498 45.533 288.795 37.7546 206.44ZM422.027 376.869C420.899 377.588 419.623 378.264 418.642 379.026C395.396 394.253 370.595 406.781 344.433 417.116C329.671 422.991 313.3 425.103 298.948 431.247C282.876 437.938 267.089 444.113 249.229 445.192C249.081 445.149 249.057 445.89 248.816 446.868C283.485 454.133 316.385 450.553 347.174 437.525C377.815 424.455 405.061 406.502 422.027 376.869ZM142.835 108.642C138.068 113.838 133.573 119.863 132.194 127.394C135.767 121.251 139.375 114.968 142.835 108.642ZM152.915 91.5219C153.438 91.9737 153.813 92.3824 154.301 92.9739C157.905 88.6359 161.475 84.4375 165.08 80.0994C160.464 83.3942 155.553 86.6027 152.915 91.5219Z" fill="#F5F8FF"/>
</g>
</svg>
