<svg width="575" height="291" viewBox="0 0 575 291" fill="none" xmlns="http://www.w3.org/2000/svg">
<mask id="mask0" mask-type="alpha" maskUnits="userSpaceOnUse" x="0" y="0" width="575" height="291">
<rect width="575" height="291" fill="#F6C1C6"/>
</mask>
<g mask="url(#mask0)">
<path d="M19 286.216C19.6124 262.069 22.9809 238.355 31.8612 215.798C41.201 192.085 45.9474 167.649 51.6124 143.212C62.177 98.6771 80.244 57.3232 114.234 23.7773C142.56 -4.41854 176.856 -22.6374 217.737 -28.2766C247.593 -32.4698 277.297 -30.8793 306.234 -22.2036C309.297 -21.3361 312.359 -20.4685 315.574 -21.0469C343.9 -25.5293 370.694 -20.7577 396.723 -10.2023C428.569 2.66658 456.589 20.5962 480.014 44.7435C497.928 63.2515 512.168 84.3623 520.435 108.076C529.928 135.259 534.062 163.022 528.244 191.651C526.866 198.447 527.479 205.821 525.335 212.039C522.732 219.702 521.66 227.655 519.057 235.174C514.464 248.043 512.933 261.49 509.871 274.504C505.89 290.987 499.306 306.604 491.498 321.786C480.627 342.752 467 362.272 449.392 378.611C433.775 393.071 417.546 407.241 398.101 417.796C384.168 425.46 370.847 434.136 356.455 440.932C309.756 463.054 260.608 474.622 208.091 471.585C167.517 469.272 130.311 457.56 97.3924 434.714C51.4593 402.903 26.1962 359.814 20.5311 306.314C19.7656 299.663 19.4593 292.867 19 286.216ZM92.7991 61.3718C90.6555 61.3718 89.89 63.1069 89.1244 64.4083C81.3158 76.988 74.2727 89.8569 69.5263 103.738C67.9952 108.51 63.4019 112.558 64.6268 118.342C67.5359 116.896 68.9139 114.872 69.067 112.124C69.3732 107.353 71.823 103.304 73.9665 99.1109C80.244 86.5312 86.3684 73.8069 92.6459 61.2272C101.526 50.2381 110.407 39.2489 119.287 28.1152C113.163 33.1759 107.345 38.3813 102.751 44.8881C99.0766 50.2381 93.7177 54.5759 92.7991 61.3718ZM264.129 10.6193C250.196 12.7882 239.478 16.9814 230.139 24.0665C220.646 31.2962 214.981 41.1286 208.703 50.8164C200.282 64.2637 194.464 78.7231 190.024 93.3271C186.043 106.196 183.287 119.788 181.756 133.38C177.928 165.624 177.316 197.58 187.115 229.101C197.373 262.069 214.215 290.987 241.775 313.833C286.636 350.849 342.215 357.212 394.732 334.944C398.101 333.498 401.316 331.763 403.306 328.582C416.168 308.049 425.354 286.071 431.019 263.081C438.828 231.993 439.9 200.182 435.459 168.372C429.029 122.824 411.727 81.7596 378.196 47.9246C360.895 30.2841 341.909 14.3787 315.574 9.60709C307.766 8.16115 299.038 5.41386 292.608 11.4868C285.718 18.2827 279.134 25.8016 274.388 34.0435C254.636 69.1799 250.502 106.196 262.598 144.369C267.191 159.262 277.144 170.685 291.077 179.071C293.679 180.662 299.191 181.674 297.354 185.434C295.67 188.615 290.617 187.747 286.943 186.735C285.565 186.301 284.187 185.723 282.962 185C267.345 175.89 254.636 164.034 247.593 147.839C232.742 113.426 234.426 78.4339 245.909 43.5867C249.737 32.1638 256.014 21.8976 264.129 10.6193ZM174.1 58.4799C172.416 59.0583 171.498 59.3475 170.885 59.7813C151.44 74.9637 134.445 92.1704 118.368 110.245C105.967 124.126 95.555 139.308 85.9091 154.924C79.3254 165.624 73.0479 176.613 71.6699 189.193C68.1483 219.992 68.7608 250.646 75.3445 281.155C84.6842 324.678 101.986 364.441 135.057 396.975C151.9 413.603 171.957 425.46 194.923 432.111C232.282 442.811 267.345 433.846 301.029 418.519C322.923 408.687 342.062 394.806 359.976 379.624C368.091 372.683 375.9 365.02 382.33 355.043C370.847 356.344 360.895 358.657 350.636 359.67C315.88 363.14 283.115 356.489 252.646 341.162C211.153 320.34 183.287 287.951 167.517 246.308C147.612 193.386 148.99 139.886 164.608 86.0974C167.211 77.1326 170.732 68.1677 174.1 58.4799ZM476.493 304.001C473.124 303.856 471.287 305.013 469.909 306.604C462.713 314.99 453.526 320.774 444.034 326.558C438.522 329.883 433.01 333.209 427.498 336.39C418.464 341.595 413.565 350.416 407.134 357.935C388.148 380.491 366.254 400.156 340.378 415.772C309.45 434.425 276.684 446.571 239.479 448.017C219.574 448.884 200.742 447.149 181.756 441.51C150.981 432.4 126.177 415.338 105.048 393.215C73.5072 360.103 57.2775 320.051 48.3971 276.962C47.7847 273.636 46.7129 270.455 45.7943 267.274C43.3445 275.371 43.8038 283.179 43.6507 290.987C43.0383 323.666 52.2249 354.464 69.3732 382.082C86.0622 408.976 110.254 429.798 141.029 443.1C168.742 455.102 197.833 460.886 228.301 459.44C261.833 457.849 293.679 449.607 324.301 436.883C376.206 415.194 421.22 385.118 454.751 341.162C463.325 329.594 470.828 317.593 476.493 304.001ZM359.057 12.6436C363.498 18.4273 370.234 21.4638 375.746 25.8016C407.44 51.3948 429.029 83.2055 443.268 120.077C457.354 156.37 460.11 193.82 457.048 231.848C455.211 255.562 448.933 278.841 439.9 301.109C439.134 302.844 436.837 305.013 439.593 306.604C441.737 307.905 442.809 305.302 444.187 304.145C458.579 292.578 470.062 278.697 479.402 263.37C487.976 249.344 495.325 235.174 494.254 217.678C489.66 139.742 455.517 76.8434 389.373 29.8503C379.88 23.199 369.928 17.126 359.057 12.6436ZM507.574 159.551C507.115 115.161 491.957 76.1204 457.813 44.7435C427.498 16.8368 393.507 -4.56313 349.871 -8.46717C427.957 26.38 480.474 82.1934 507.574 159.551ZM95.8613 103.16C96.7799 102.147 97.8517 101.135 98.6172 100.123C117.45 78.8677 138.426 59.7813 161.239 42.43C174.101 32.5976 189.411 25.9462 201.813 15.9692C215.746 4.98008 229.526 -5.4307 246.522 -11.5037C246.675 -11.5037 246.522 -12.2266 246.522 -13.2388C211.306 -10.4915 180.378 2.2328 153.737 23.4881C127.249 44.7435 105.201 69.7583 95.8613 103.16ZM429.335 283.613C432.703 277.251 435.612 270.166 435.153 262.502C433.163 269.443 431.172 276.528 429.335 283.613ZM423.67 302.989C423.057 302.699 422.598 302.41 421.986 301.977C419.536 307.182 417.086 312.243 414.636 317.448C418.311 312.966 422.292 308.483 423.67 302.989Z" fill="#FCE5E7" fill-opacity="0.6"/>
</g>
</svg>
